<?xml version="1.0" encoding="utf-8"?>
<!-- Generator: Adobe Illustrator 27.1.1, SVG Export Plug-In . SVG Version: 6.00 Build 0)  -->
<svg version="1.1" id="Warstwa_1" xmlns="http://www.w3.org/2000/svg" xmlns:xlink="http://www.w3.org/1999/xlink" x="0px" y="0px"
	 viewBox="0 0 393 108.9" style="enable-background:new 0 0 393 108.9;" xml:space="preserve">
<style type="text/css">
	.st0{fill:#FFFFFF;}
	.st1{fill-rule:evenodd;clip-rule:evenodd;fill:#E30613;}
	
		.st2{clip-path:url(#SVGID_00000114789822213705147610000016239186385330307493_);fill-rule:evenodd;clip-rule:evenodd;fill:#D41A15;}
	
		.st3{clip-path:url(#SVGID_00000114789822213705147610000016239186385330307493_);fill-rule:evenodd;clip-rule:evenodd;fill:#F18917;}
	
		.st4{clip-path:url(#SVGID_00000114789822213705147610000016239186385330307493_);fill-rule:evenodd;clip-rule:evenodd;fill:#FFFFFF;}
	.st5{fill-rule:evenodd;clip-rule:evenodd;}
	.st6{fill-rule:evenodd;clip-rule:evenodd;fill:#FFFFFF;}
	
		.st7{clip-path:url(#SVGID_00000100378377728139540040000013782825021502024121_);fill-rule:evenodd;clip-rule:evenodd;fill:#D41A15;}
	
		.st8{clip-path:url(#SVGID_00000100378377728139540040000013782825021502024121_);fill-rule:evenodd;clip-rule:evenodd;fill:#F18917;}
	
		.st9{clip-path:url(#SVGID_00000100378377728139540040000013782825021502024121_);fill-rule:evenodd;clip-rule:evenodd;fill:#FFFFFF;}
	.st10{fill:#E30613;}
	
		.st11{clip-path:url(#SVGID_00000055675586371047821510000017740623720659455642_);fill-rule:evenodd;clip-rule:evenodd;fill:#D41A15;}
	
		.st12{clip-path:url(#SVGID_00000055675586371047821510000017740623720659455642_);fill-rule:evenodd;clip-rule:evenodd;fill:#F18917;}
	
		.st13{clip-path:url(#SVGID_00000055675586371047821510000017740623720659455642_);fill-rule:evenodd;clip-rule:evenodd;fill:#FFFFFF;}
	
		.st14{clip-path:url(#SVGID_00000073692737394542826930000005807029201887526539_);fill-rule:evenodd;clip-rule:evenodd;fill:#D41A15;}
	
		.st15{clip-path:url(#SVGID_00000073692737394542826930000005807029201887526539_);fill-rule:evenodd;clip-rule:evenodd;fill:#F18917;}
	
		.st16{clip-path:url(#SVGID_00000073692737394542826930000005807029201887526539_);fill-rule:evenodd;clip-rule:evenodd;fill:#FFFFFF;}
	.st17{fill:#D92930;}
	.st18{fill-rule:evenodd;clip-rule:evenodd;fill:#D92930;}
	
		.st19{clip-path:url(#SVGID_00000064331164630099750140000005566482202055410831_);fill-rule:evenodd;clip-rule:evenodd;fill:#C5212E;}
	
		.st20{clip-path:url(#SVGID_00000064331164630099750140000005566482202055410831_);fill-rule:evenodd;clip-rule:evenodd;fill:#E5802E;}
	
		.st21{clip-path:url(#SVGID_00000064331164630099750140000005566482202055410831_);fill-rule:evenodd;clip-rule:evenodd;fill:#FFFFFF;}
	
		.st22{clip-path:url(#SVGID_00000115492297850147544700000000639517044478350244_);fill-rule:evenodd;clip-rule:evenodd;fill:#D41A15;}
	
		.st23{clip-path:url(#SVGID_00000115492297850147544700000000639517044478350244_);fill-rule:evenodd;clip-rule:evenodd;fill:#F18917;}
	
		.st24{clip-path:url(#SVGID_00000115492297850147544700000000639517044478350244_);fill-rule:evenodd;clip-rule:evenodd;fill:#FFFFFF;}
	
		.st25{clip-path:url(#SVGID_00000137853933678557280700000000332779725645241504_);fill-rule:evenodd;clip-rule:evenodd;fill:#C5212E;}
	
		.st26{clip-path:url(#SVGID_00000137853933678557280700000000332779725645241504_);fill-rule:evenodd;clip-rule:evenodd;fill:#E5802E;}
	
		.st27{clip-path:url(#SVGID_00000137853933678557280700000000332779725645241504_);fill-rule:evenodd;clip-rule:evenodd;fill:#FFFFFF;}
	
		.st28{clip-path:url(#SVGID_00000052080063383403224680000017200672903351991223_);fill-rule:evenodd;clip-rule:evenodd;fill:#D41A15;}
	
		.st29{clip-path:url(#SVGID_00000052080063383403224680000017200672903351991223_);fill-rule:evenodd;clip-rule:evenodd;fill:#F18917;}
	
		.st30{clip-path:url(#SVGID_00000052080063383403224680000017200672903351991223_);fill-rule:evenodd;clip-rule:evenodd;fill:#FFFFFF;}
	
		.st31{clip-path:url(#SVGID_00000127754873624481424590000008986923789446277812_);fill-rule:evenodd;clip-rule:evenodd;fill:#C00D0D;}
	
		.st32{clip-path:url(#SVGID_00000127754873624481424590000008986923789446277812_);fill-rule:evenodd;clip-rule:evenodd;fill:#F18917;}
	
		.st33{clip-path:url(#SVGID_00000127754873624481424590000008986923789446277812_);fill-rule:evenodd;clip-rule:evenodd;fill:#FFFFFF;}
	
		.st34{clip-path:url(#SVGID_00000155142324499752506170000003668983920555223683_);fill-rule:evenodd;clip-rule:evenodd;fill:#C00D0D;}
	
		.st35{clip-path:url(#SVGID_00000155142324499752506170000003668983920555223683_);fill-rule:evenodd;clip-rule:evenodd;fill:#F18917;}
	
		.st36{clip-path:url(#SVGID_00000155142324499752506170000003668983920555223683_);fill-rule:evenodd;clip-rule:evenodd;fill:#FFFFFF;}
</style>
<polygon class="st10" points="43.2,91.2 45.2,97.9 48.2,91.8 51.4,98 53.5,91.2 57.9,91.2 52.2,107.2 48.3,99.5 44.4,107.2 
	38.8,91.2 "/>
<polygon class="st10" points="64.1,95.1 64.1,97.1 70.1,97.1 70.1,101 64.1,101 64.1,103.4 70.1,103.4 70.1,107.2 64.1,107.2 
	59.4,107.2 59.4,91.2 64.1,91.2 70.1,91.2 70.1,95.1 "/>
<polygon class="st10" points="78.7,107.2 78.7,91.2 86.8,100.7 95,91.2 95,107.2 90.6,107.2 90.6,102 86.8,105.8 83,102 83,107.2 
	"/>
<path class="st10" d="M101.5,107.2h-5.1l8.1-16l8.1,16h-5.3l-2.9-6.9L101.5,107.2z M102.8,104l1.5,3l1.5-3H102.8z"/>
<polygon class="st10" points="122.7,107.2 118.2,100.6 118.2,107.2 113.5,107.2 113.5,91.2 118.2,91.2 118.2,97.5 122.1,91.2 
	126.6,91.2 121.8,99 127.3,107.2 "/>
<polygon class="st10" points="133.7,95.1 133.7,97.1 139.7,97.1 139.7,101 133.7,101 133.7,103.4 139.7,103.4 139.7,107.2 
	133.7,107.2 129.1,107.2 129.1,91.2 133.7,91.2 139.7,91.2 139.7,95.1 "/>
<path class="st10" d="M160.9,96.3c0,5.1-4.7,5.1-4.7,5.1h-3.3v5.9h-4.7v-16h4.6h3.3C156.2,91.2,160.9,91.2,160.9,96.3 M156.2,96.3
	c0-1.2-1-1.2-1-1.2h-2.3v2.5h2.3C155.2,97.6,156.2,97.6,156.2,96.3"/>
<polygon class="st10" points="167.1,95.1 167.1,97.1 173.1,97.1 173.1,101 167.1,101 167.1,103.4 173.1,103.4 173.1,107.2 
	167.1,107.2 162.5,107.2 162.5,91.2 167.1,91.2 173.1,91.2 173.1,95.1 "/>
<path class="st10" d="M190.8,99.2c0,4.4-3.6,8-8,8c-4.4,0-8-3.6-8-8c0-4.4,3.6-8,8-8C187.3,91.2,190.8,94.8,190.8,99.2 M186.3,99.2
	c0-2.1-1.6-3.7-3.5-3.7c-1.8,0-3.5,1.6-3.5,3.7c0,2.2,1.6,3.7,3.5,3.7C184.7,102.9,186.3,101.4,186.3,99.2"/>
<path class="st10" d="M205.3,96.3c0,5.1-4.7,5.1-4.7,5.1h-3.3v5.9h-4.7v-16h4.6h3.3C200.6,91.2,205.3,91.2,205.3,96.3 M200.6,96.3
	c0-1.2-1-1.2-1-1.2h-2.3v2.5h2.3C199.6,97.6,200.6,97.6,200.6,96.3"/>
<polygon class="st10" points="218.6,103.4 218.6,107.2 211.6,107.2 206.9,107.2 206.9,91.2 211.6,91.2 211.6,103.4 "/>
<polygon class="st10" points="224.4,95.1 224.4,97.1 230.4,97.1 230.4,101 224.4,101 224.4,103.4 230.4,103.4 230.4,107.2 
	224.4,107.2 219.7,107.2 219.7,91.2 224.4,91.2 230.4,91.2 230.4,95.1 "/>
<path class="st10" d="M245.6,96.2c0,0-0.9-1.5-2.1-1.5c-0.7,0-1.2,0.4-1.2,1.1c0,0.7,0.7,1,1.3,1.2c1.6,0.6,5,1.6,5,5.2
	c0,3.5-2.7,5-5.1,5c-3.5,0-5.3-3.1-5.3-3.1l2.9-1.7c0.5,0.7,1.6,1.3,2.5,1.3c0.7,0,1.2-0.5,1.2-1.1c0-0.9-1-1.1-1.8-1.4
	c-1.3-0.5-4.3-1.5-4.3-5.3c0-2.5,2.2-4.6,4.9-4.6c3.9,0,5.1,3.5,5.1,3.5L245.6,96.2z"/>
<polygon class="st10" points="261,95.1 257.5,95.1 257.5,107.2 252.8,107.2 252.8,95.1 249.4,95.1 249.4,91.2 252.9,91.2 
	257.6,91.2 261.1,91.2 261.1,95.1 "/>
<path class="st10" d="M271,107.2l-2.9-5.9h-0.8v5.9h-4.7v-16h4.6h3.3c0,0,4.7,0,4.7,5.1c0,2.6-1.3,3.9-2.5,4.5l3.3,6.4L271,107.2
	L271,107.2z M267.2,97.6h2.3c0,0,1,0,1-1.3c0-1.2-1-1.2-1-1.2h-2.3V97.6z"/>
<path class="st10" d="M293.2,99.2c0,4.4-3.6,8-8,8c-4.4,0-8-3.6-8-8c0-4.4,3.6-8,8-8C289.7,91.2,293.2,94.8,293.2,99.2 M288.7,99.2
	c0-2.1-1.6-3.7-3.5-3.7c-1.8,0-3.5,1.6-3.5,3.7c0,2.2,1.6,3.7,3.5,3.7C287.1,102.9,288.7,101.4,288.7,99.2"/>
<polygon class="st10" points="295.1,91.2 304.8,98.2 304.8,91.2 309.3,91.2 309.3,107.2 299.3,100 299.3,107.2 295.1,107.2 
	295.1,91.2 "/>
<path class="st10" d="M327,99.2c0,4.4-3.5,8-7.9,8c-4.4,0-7.9-3.6-7.9-8c0-4.4,3.6-8,8-8c2,0,3.8,0.7,5.2,1.9l-3.1,3.1
	c-0.6-0.5-1.3-0.7-2.1-0.7c-1.8,0-3.5,1.6-3.5,3.7c0,2.2,1.5,3.7,3.3,3.7c1.1,0,2.1-0.5,2.8-1.3h-2.5v-3.7h7.1h0.4
	C327,98,327,99.1,327,99.2"/>
<polygon class="st10" points="333.7,95.1 333.7,97.1 339.7,97.1 339.7,101 333.7,101 333.7,103.4 339.7,103.4 339.7,107.2 
	333.7,107.2 329,107.2 329,91.2 333.7,91.2 339.7,91.2 339.7,95.1 "/>
<path class="st10" d="M350.3,107.2l-2.9-5.9h-0.8v5.9h-4.7v-16h4.6h3.3c0,0,4.7,0,4.7,5.1c0,2.6-1.3,3.9-2.5,4.5l3.3,6.4
	L350.3,107.2L350.3,107.2z M346.5,97.6h2.3c0,0,1,0,1-1.3c0-1.2-1-1.2-1-1.2h-2.3V97.6z"/>
<rect x="1.5" y="95.9" class="st10" width="28.9" height="2.7"/>
<rect x="7.7" y="101" class="st10" width="22.8" height="2.7"/>
<rect x="362.4" y="95.9" class="st10" width="28.9" height="2.7"/>
<rect x="362.4" y="101" class="st10" width="22.8" height="2.7"/>
<polygon points="1.5,79.6 17.5,2.1 35.6,2.1 29.2,33.1 49.1,2.1 67.8,2.1 44.2,36.3 52.8,79.6 33.6,79.6 29.2,52.6 23.6,60.5 
	19.6,79.6 "/>
<path d="M138,53.1h15.9l-1.2,5.8c-0.4,2.3-0.2,4.2,0.7,5.4c1,1.2,2.3,1.9,4.1,1.9c4.4,0,7.1-2.5,8.2-7.5c0.7-3.2-1.1-6.4-5.3-9.4
	c-6.8-5-10.6-8.1-11.6-9.3c-3.9-4.7-5.2-10.3-3.8-16.9l0.3-1.9c2-6.4,5.1-11.2,9.2-14.3c4.1-3.2,9.4-4.8,16.1-4.8
	c6.4,0,11.4,1.7,14.6,5.1c3.8,4,4.9,9.6,3.3,17.3l-0.3,1.6h-15.7c0.8-3.9,0.8-6.6,0.1-8.2c-0.8-1.7-2.1-2.4-4.2-2.4
	c-1.4,0-2.7,0.3-3.5,0.9c-1.4,0.9-2.5,2.5-3.2,4.8c-0.7,3.1,1.1,6.2,5.2,9.2c7.5,5.4,11.4,8.2,11.6,8.5c4,4,5.3,8.9,4.2,14.5
	l-0.7,3.1c-1.7,8.3-5.2,14.4-10.3,18.3c-4.4,3.3-10.1,5-17.1,5c-6,0-10.7-1.4-14.3-4.3c-3.9-3.3-5.2-7.9-4-13.8L138,53.1z"/>
<path d="M205.7,35.5h0.8c5.2,0,8.9-1,10.9-3.1c1.3-1.3,2.3-3.9,3.2-7.9c0.8-3.7,0.4-6.1-1.1-7.3c-0.9-0.9-2.7-1.2-5.1-1.2h-1.5h-1.1
	h-2L205.7,35.5z M178.5,79.6l15.9-77.4h22.1c7.5,0,13,1,16.3,3.1c5.8,3.5,7.6,10.4,5.5,20.6c-2.2,10.4-6.9,17.4-14.1,20.6
	c-4.3,2-11.5,3-21.6,3l-6.2,30h-18.1V79.6z"/>
<path d="M257.7,22.5l-0.3,1.6l-6.8,32.7c-0.6,2.7-0.4,5,0.2,6.8c0.7,1.8,2.1,2.7,4.2,2.7c2.2,0,4-0.9,5.2-2.5
	c1.2-1.7,2.2-4.3,2.9-7.6l6.6-31.9l0.3-1.6c0.6-2.5,0.3-4.4-0.7-5.4c-1-1.1-2.3-1.7-4.2-1.7c-1.7,0-3.1,0.6-4.4,1.6
	C259.5,18,258.5,19.9,257.7,22.5 M233.3,56.6l6.8-32.6c1.7-8,5.3-13.7,11-17.4c4.7-3,10.4-4.5,17.4-4.5c6.8,0,11.8,1.7,15.3,4.9
	c4,3.8,5.1,9.4,3.5,17.2l-6.8,32.6c-1.6,7.8-4.5,13.4-8.7,17.1c-4.7,4-11.3,5.9-19.9,5.9c-8.3,0-14-2.2-16.8-6.5
	C232.3,69.3,231.8,63.8,233.3,56.6"/>
<path d="M305,35h6.2c2.1,0,3.9-0.7,5.1-1.9c1.7-1.5,2.9-4.4,3.8-8.5c0.8-3.5-0.1-6-2.7-7.2c-1.7-0.8-4.4-1.2-8.5-1.2L305,35z
	 M277.6,79.6l15.9-77.4h27.2c7.1,0,12.2,1.7,15.2,4.9c3.1,3.2,3.9,8.3,2.4,15.1c-1.1,5.3-2.8,9.5-4.9,12.4c-2.1,2.9-5.1,5.2-9.1,6.9
	v0.2c2.3,0,4.1,1,5.4,3.1c1.3,2.1,2,4.3,1.8,6.8l-3.2,18.3c-0.6,2.7-0.7,4.7-0.4,6.2c0.2,1.6,0.7,2.4,1.2,2.7l-0.2,1h-19.7
	c-0.3-0.9-0.4-1.8-0.4-2.8c0-1,0.3-3.1,1-6.3l1.8-8.6c0.9-4.1,1.1-7.3,0.7-9.4c-0.4-2.2-1.9-3.2-4.3-3.2h-6.2l-6.3,30.5h-17.8V79.6z
	"/>
<polygon points="342.5,79.6 355.4,17.6 341,17.6 344.2,2.1 391.5,2.1 388.3,17.6 373.5,17.6 360.7,79.6 "/>
<path class="st1" d="M96,2.1c21.4,0,38.8,17.4,38.8,38.8c0,21.4-17.4,38.8-38.8,38.8c-21.4,0-38.8-17.4-38.8-38.8
	C57.2,19.5,74.6,2.1,96,2.1"/>
<g>
	<defs>
		<path id="SVGID_00000014623970695284965880000016484357081653159843_" d="M57.2,40.8c0,21.4,17.4,38.8,38.8,38.8
			c21.4,0,38.8-17.4,38.8-38.8c0-21.4-17.4-38.8-38.8-38.8C74.6,2.1,57.2,19.5,57.2,40.8"/>
	</defs>
	<clipPath id="SVGID_00000168077308215150945750000009933921796009095567_">
		<use xlink:href="#SVGID_00000014623970695284965880000016484357081653159843_"  style="overflow:visible;"/>
	</clipPath>
	
		<path style="clip-path:url(#SVGID_00000168077308215150945750000009933921796009095567_);fill-rule:evenodd;clip-rule:evenodd;fill:#D41A15;" d="
		M111.8,32c8,6.3,15.8-5.4,17.9-9.7c0.6,1.7,0.7,2.2,1.2,3.5c0.1-0.3,0.2-0.7,0.3-1c2.2,9.2-13.1,16.1-16.8,16.1
		c-4.2,0-7.9-9-10.9-9.6c-2.1,0-10.5,8.5-12,10.6c4,0.9,14.5,4.9,14.5,8.6c0,3.4-2.1,6.6-4.5,9.6c-5.6,8.2-6.2,15.1,0.4,20.2
		l-3.8,0.7c0.1,0.1,0.2,0.3,0.3,0.4c-17.1-5.2-10.1-17.5-1.1-27.9c-2.8-0.8-6.8-2.2-11.1-1.8c-1.2,0-6.8,6.5-12.7,11.7
		c-6,5.1-14.7-5-15.7-3.5c-0.7,3-2.1,3,0,6c-6.6-0.6-6.6-11.5-4.4-14.4c5,2.5,13.7,8.5,15.9,6.5c2.8-3.2,4.8-5.4,7.5-8.6
		c-4.9-10,6.5-16.7,9.4-28.9c-11.5-6.2-20.9,1.3-30,10.6c0.7-3.1,1.4-6.2,2.1-9.2l3.2-1.9c4-5.6,10.2-8.7,16.5-8.7
		c5.1,0,15.3,5.5,17.9,5.5c5.8,0,0.1-11.5,7.5-11.5l6.5-0.2c2.8,7.1,2.8,13.8-6.9,16.1c3.8,1.1,5.2,5.1,6.6,8.6
		c0.3,0.9,0.9,1.8,1.4,2.5L111.8,32z"/>
	
		<path style="clip-path:url(#SVGID_00000168077308215150945750000009933921796009095567_);fill-rule:evenodd;clip-rule:evenodd;fill:#F18917;" d="
		M114,30.7c8,6.3,15.8-5.4,17.9-9.7c0.7,2,0.8,2.3,1.4,4.2c-1.6,2.5-3.2,5-4.8,7.5c-3.3,1-6.6,2-10.1,3c-1.8-1.3-3.4-2.7-5.2-4
		C113.6,31.3,113.8,31,114,30.7"/>
	
		<path style="clip-path:url(#SVGID_00000168077308215150945750000009933921796009095567_);fill-rule:evenodd;clip-rule:evenodd;fill:#F18917;" d="
		M88.8,18.9c-11.5-6.2-20.9,1.3-30,10.6c0.7-3.1,1.4-6.2,2.1-9.2c4.5-2.7,9.2-5.4,13.7-8.1h9.6c2.2,2.1,4.4,4.2,6.6,6.3
		C90.3,19,89.6,18.5,88.8,18.9"/>
	
		<path style="clip-path:url(#SVGID_00000168077308215150945750000009933921796009095567_);fill-rule:evenodd;clip-rule:evenodd;fill:#F18917;" d="
		M105.7,56c-7.4,9.4-9,17.2-1.6,22.8c-1.3,0.2-2.7,0.4-4,0.7c-1.8-1.8-3.5-3.5-5.3-5.3c-0.2-1.9-0.4-3.8-0.7-5.6
		c0.6-1.4,1.2-3,1.8-4.4C99.3,61.4,102.6,58.8,105.7,56"/>
	
		<path style="clip-path:url(#SVGID_00000168077308215150945750000009933921796009095567_);fill-rule:evenodd;clip-rule:evenodd;fill:#FFFFFF;" d="
		M98.5,15.3c-2.5,0-12.7-5.5-17.9-5.5C72.5,9.7,64.5,15,61.2,24c10-7.8,14.6-13.8,27.6-5.2c-2.9,12.2-14.3,19-9.4,29
		c-2.8,3.2-4.8,5.4-7.5,8.6c-2.2,2.1-11-4-15.9-6.5c-2.3,2.9-2.2,13.8,4.4,14.4c-2.1-3-0.7-3,0-6c1-1.4,9.7,8.6,15.7,3.5
		s11.5-11.7,12.7-11.7c4.2-0.4,8.2,1,11.1,1.8c-9,10.5-15.9,22.8,1.1,27.9c-2.2-2.3-4.4-5.6-4.4-9.7c0-6.2,11.9-12.8,11.9-21.2
		c0-3.9-10.5-7.8-14.5-8.6c1.4-2.1,9.7-10.6,12-10.6c3,0.7,6.6,9.6,10.9,9.6c3.8,0,19-6.9,16.8-16.1c-1.4,6.6-10.4,10.9-15.3,10.9
		c-2.4-0.9-4.7-3.5-5.6-6.1c-1.4-3.5-2.9-7.5-6.6-8.6c9.6-2.2,9.6-9,6.9-16.1l-6.5,0.2C98.7,3.7,104.3,15.3,98.5,15.3"/>
	
		<path style="clip-path:url(#SVGID_00000168077308215150945750000009933921796009095567_);fill-rule:evenodd;clip-rule:evenodd;fill:#FFFFFF;" d="
		M133.2,24.5c-2.1,6.1-10.4,9.9-15,9.9c-1.7-0.6-3.1-1.9-4.2-3.4l-0.4,0.8c1.8,1.3,3.4,2.7,5.2,4c3.3-1,6.6-2,10.1-3
		c1.6-2.5,3.2-5,4.8-7.5C133.3,24.9,133.2,24.7,133.2,24.5"/>
</g>
</svg>
